<svg width="90" height="34" viewBox="0 0 90 34" fill="none" xmlns="http://www.w3.org/2000/svg">
<path fill-rule="evenodd" clip-rule="evenodd" d="M20.2955 5.93197L27.1738 12.8103C29.517 15.1534 29.517 18.9524 27.1738 21.2956L20.2955 28.1739C17.9524 30.517 14.1534 30.517 11.8102 28.1739L4.93191 21.2956C2.58876 18.9524 2.58876 15.1534 4.93191 12.8103L11.8102 5.93197C14.1534 3.58883 17.9524 3.58883 20.2955 5.93197Z" fill="white"/>
<path fill-rule="evenodd" clip-rule="evenodd" d="M26.3433 5.93197L33.2217 12.8103C35.5648 15.1534 35.5648 18.9524 33.2217 21.2956L26.3433 28.1739C24.0002 30.517 20.2012 30.517 17.8581 28.1739L10.9798 21.2956C8.63661 18.9524 8.63661 15.1534 10.9798 12.8103L17.8581 5.93197C20.2012 3.58883 24.0002 3.58883 26.3433 5.93197Z" fill="#196FE0" stroke="white" stroke-width="2"/>
<path d="M44.4306 9.76416H41.3995V16.268C41.3995 17.1312 41.1939 17.7912 40.7827 18.2481C40.3714 18.7051 39.7647 18.9336 38.9625 18.9336C38.1704 18.9336 37.5713 18.7051 37.1652 18.2481C36.759 17.7912 36.5559 17.1312 36.5559 16.268V9.76416H33.5096V16.4508C33.5096 17.2124 33.6264 17.9232 33.8599 18.5832C34.0935 19.2433 34.4387 19.817 34.8957 20.3044C35.3526 20.7918 35.9212 21.1751 36.6016 21.4544C37.2819 21.7336 38.0689 21.8733 38.9625 21.8733C39.8459 21.8733 40.6278 21.7336 41.3082 21.4544C41.9885 21.1751 42.5597 20.7918 43.0217 20.3044C43.4837 19.817 43.8341 19.2433 44.0727 18.5832C44.3113 17.9232 44.4306 17.2124 44.4306 16.4508V9.76416ZM49.5941 9.76416V21.6448H52.6404V18.9488H54.8338C55.6258 18.9488 56.3138 18.8244 56.8977 18.5756C57.4815 18.3268 57.9664 17.9918 58.3523 17.5703C58.7381 17.1489 59.025 16.659 59.2129 16.1005C59.4007 15.542 59.4947 14.948 59.4947 14.3184C59.4947 13.7193 59.4007 13.1456 59.2129 12.5972C59.025 12.0489 58.7382 11.564 58.3523 11.1426C57.9664 10.7212 57.4815 10.3861 56.8977 10.1373C56.3138 9.88855 55.6258 9.76416 54.8338 9.76416H49.5941ZM52.6404 12.5363H54.6662C54.981 12.5363 55.2501 12.5845 55.4735 12.681C55.6969 12.7775 55.8797 12.9095 56.0219 13.077C56.164 13.2446 56.2656 13.4375 56.3265 13.6558C56.3874 13.8741 56.4179 14.1001 56.4179 14.3336C56.4179 14.8617 56.2859 15.3008 56.0219 15.6512C55.7578 16.0015 55.306 16.1767 54.6662 16.1767H52.6404V12.5363ZM67.2171 9.76416H64.1707V21.6448H67.2171V9.76416ZM72.5481 9.76416V21.6448H75.5792V17.578H80.4381V14.821H75.5792V12.7191H81.3672V9.76416H72.5481ZM89.2267 9.76416V21.6448H86.1804V9.76416H89.2267Z" fill="white"/>
<path d="M17.4894 9.3252V23.1008H19.7293V9.3252H17.4894Z" fill="white"/>
<path d="M17.8771 18.5803L25.9409 23.2842L27.0695 21.3494L19.0057 16.6455L17.8771 18.5803Z" fill="white"/>
<path d="M17.6454 11.565L28.1612 11.677L28.1851 9.43719L17.6693 9.3252L17.6454 11.565Z" fill="white"/>
<path d="M17.6454 14.9249L28.1612 15.0369L28.1851 12.7971L17.6693 12.6851L17.6454 14.9249Z" fill="white"/>
<path d="M17.6574 9.3252V11.5651H22.3613C23.6602 11.5651 24.7132 12.6181 24.7132 13.9171C24.7132 15.216 23.6602 16.269 22.3613 16.269H17.6574V18.5089H22.3613C24.8973 18.5089 26.9532 16.4531 26.9532 13.9171C26.9532 11.381 24.8973 9.3252 22.3613 9.3252H17.6574Z" fill="white"/>
</svg>
